<svg width="24" height="24" viewBox="0 0 24 24" fill="none" xmlns="http://www.w3.org/2000/svg">
<path fill-rule="evenodd" clip-rule="evenodd" d="M12 19.5C16.1421 19.5 19.5 16.1421 19.5 12C19.5 7.85786 16.1421 4.5 12 4.5C7.85786 4.5 4.5 7.85786 4.5 12C4.5 16.1421 7.85786 19.5 12 19.5ZM12 21C16.9706 21 21 16.9706 21 12C21 7.02944 16.9706 3 12 3C7.02944 3 3 7.02944 3 12C3 16.9706 7.02944 21 12 21Z" fill="#001A33"/>
<path fill-rule="evenodd" clip-rule="evenodd" d="M6.08067 15.7382C5.95746 15.5435 5.99807 15.2895 6.1736 15.1402C7.74364 13.8054 9.77776 13 12 13C14.2222 13 16.2564 13.8054 17.8264 15.1402C18.0019 15.2895 18.0425 15.5435 17.9193 15.7382C17.8121 15.9077 17.6978 16.0722 17.5768 16.2314C17.4038 16.4591 17.0731 16.4687 16.8553 16.2835C15.5469 15.1712 13.8518 14.5 12 14.5C10.1482 14.5 8.45306 15.1712 7.14471 16.2835C6.92688 16.4687 6.59621 16.4591 6.42322 16.2314C6.30224 16.0722 6.18791 15.9077 6.08067 15.7382Z" fill="#001A33"/>
<path fill-rule="evenodd" clip-rule="evenodd" d="M12 10.5C12.8284 10.5 13.5 9.82843 13.5 9C13.5 8.17157 12.8284 7.5 12 7.5C11.1716 7.5 10.5 8.17157 10.5 9C10.5 9.82843 11.1716 10.5 12 10.5ZM12 12C13.6569 12 15 10.6569 15 9C15 7.34315 13.6569 6 12 6C10.3431 6 9 7.34315 9 9C9 10.6569 10.3431 12 12 12Z" fill="#001A33"/>
</svg>
