<?xml version="1.0" encoding="UTF-8"?>
<svg version="1.1" viewBox="0 0 1432 1432" width="358" height="358" xmlns="http://www.w3.org/2000/svg">
<path transform="translate(736,285)" d="m0 0h219l-2 4-31 31-1 2h-2l-2 4-14 14-7 8-10 10-7 8-16 16-7 8-13 13-7 8-14 15-5 6h-2l-1 3-8 7-7 5-4 1-16 1h-521l-13 1-6 4-4 7-2 9-1 9v598l1 55 2 11 3 5v2l9 3 12 2 48 1h615l36-1 13-4 6-5 2-3 1-6 1-205 1-47 4-10 11-16 12-16 14-19 9-12 8-11 12-16 20-26 16-21 14-19 12-17 13-18 10-14 8-10h2l-1 44-1 164v53l1 169v55l-1 45-2 25-4 17-6 15-8 14-8 11-7 8-8 7-10 8-18 10-17 7-13 3-18 2-25 1h-820l-24-4-16-6-15-8-14-11-10-9-8-9-12-19-7-16-5-22-2-19v-744l1-46 2-19 4-16 5-12 8-14 8-11 11-12 10-9 16-11 17-8 14-4 12-2 25-1z" fill="#4E4E4E"/>
<path transform="translate(1267,114)" d="m0 0h12l14 5 11 7 16 12 13 11 8 7 12 12 7 11 3 8v7l-5 14-7 12-10 15-9 14-16 23-10 13-28 38-14 18-12 15-11 14-21 28-14 18-14 19-8 11-14 19-18 24-16 21-12 16-14 18-28 38-13 18-20 26-9 12-10 13-16 21-10 14-13 18-14 19-20 26-16 21-14 19-24 32-13 18-13 17-12 16-14 18-14 19-10 13-14 18-12 16-12 17-10 14-24 32-14 19-21 28-11 14-11 11-9 5-8 3h-15l-11-4-9-6-9-9-14-19-12-17-13-19-13-18-14-20-14-21-13-18-8-12-11-16-14-19-26-36-11-16-12-17-11-16-13-18-32-46-11-16-8-12-21-31-19-29-12-20-5-14-1-4v-9l5-13 6-9 3-4h2l2-4 8-7 12-9 11-8 14-8 14-5h14l15 6 16 10 30 23 18 14 16 12 15 12 24 18 16 13 17 14 17 13 14 11 12 9 26 22 9 7 4 1 7-6 7-8 16-17 11-12 14-14 7-8 24-24 7-8 19-19 7-8 9-9 6-7h2l2-4h2l2-4 17-17 7-8 11-11 7-8 16-17 11-12 7-8 12-13 5-6h2l2-4 9-9 2-3h2l2-4 21-21 7-8 13-13 7-8 11-12 7-7 7-8 8-8 7-8 14-15 7-8 16-17 6-7h2l2-4 14-15 7-7 1-2h2l2-4h2l2-4 21-21 2-3h2l2-4 9-9 7-8 9-10 11-11 7-8 23-23 7-8 12-13 7-8 14-15 7-8 14-15 12-9z" fill="#4E4E4E"/>
</svg>
