<svg width="24" height="24" viewBox="0 0 24 24" fill="none" xmlns="http://www.w3.org/2000/svg">
<rect x="2.5" y="5.5" width="19" height="13" rx="2.5" fill="white" stroke="#D9E0E7"/>
<path fill-rule="evenodd" clip-rule="evenodd" d="M8.00029 14.2166H6.61555L5.57716 10.1385C5.52787 9.95095 5.42322 9.78511 5.26929 9.70695C4.88513 9.51052 4.46181 9.3542 4 9.27536V9.11835H6.23071C6.53858 9.11835 6.76948 9.3542 6.80796 9.62811L7.34674 12.5697L8.7308 9.11835H10.0771L8.00029 14.2166ZM10.8465 14.2166H9.53873L10.6156 9.11835H11.9234L10.8465 14.2166ZM13.6159 10.5299C13.6544 10.2554 13.8853 10.0983 14.1547 10.0983C14.578 10.0589 15.0391 10.1378 15.4239 10.3335L15.6549 9.23585C15.27 9.07884 14.8467 9 14.4625 9C13.1932 9 12.2696 9.70618 12.2696 10.6863C12.2696 11.4319 12.9239 11.8233 13.3857 12.0592C13.8853 12.2944 14.0777 12.4514 14.0392 12.6865C14.0392 13.0393 13.6544 13.1963 13.2702 13.1963C12.8084 13.1963 12.3466 13.0787 11.924 12.8823L11.693 13.9806C12.1549 14.1764 12.6545 14.2552 13.1163 14.2552C14.5395 14.2939 15.4239 13.5885 15.4239 12.5295C15.4239 11.196 13.6159 11.1179 13.6159 10.5299ZM20 14.2166L18.9616 9.11835H17.8463C17.6154 9.11835 17.3845 9.27536 17.3075 9.51052L15.3846 14.2166H16.7309L16.9996 13.4716H18.6537L18.8077 14.2166H20ZM18.0388 10.4907L18.423 12.4122H17.3461L18.0388 10.4907Z" fill="#172B85"/>
</svg>
