<svg width="24" height="24" viewBox="0 0 24 24" fill="none" xmlns="http://www.w3.org/2000/svg">
<rect x="2.5" y="5.5" width="19" height="13" rx="2.5" fill="white" stroke="#D9E0E7"/>
<path d="M13.3521 9.6607H10.648V14.5198H13.3521V9.6607Z" fill="#FF5F00"/>
<path d="M10.8197 12.0903C10.8193 11.6223 10.9254 11.1604 11.1299 10.7394C11.3344 10.3185 11.6319 9.94962 12.0001 9.6607C11.5442 9.30237 10.9967 9.07953 10.4201 9.01765C9.84358 8.95577 9.26125 9.05734 8.7397 9.31077C8.21815 9.56419 7.77842 9.95923 7.47078 10.4507C7.16314 10.9423 7 11.5104 7 12.0903C7 12.6701 7.16314 13.2382 7.47078 13.7298C7.77842 14.2213 8.21815 14.6163 8.7397 14.8697C9.26125 15.1232 9.84358 15.2247 10.4201 15.1629C10.9967 15.101 11.5442 14.8781 12.0001 14.5198C11.6319 14.2309 11.3344 13.862 11.1299 13.4411C10.9254 13.0202 10.8193 12.5582 10.8197 12.0903Z" fill="#EB001B"/>
<path d="M17 12.0903C17 12.6701 16.8369 13.2382 16.5293 13.7297C16.2216 14.2213 15.7819 14.6163 15.2604 14.8697C14.7389 15.1232 14.1565 15.2247 13.58 15.1629C13.0035 15.101 12.456 14.8781 12.0001 14.5198C12.3679 14.2306 12.6652 13.8617 12.8697 13.4408C13.0742 13.0199 13.1804 12.5581 13.1804 12.0903C13.1804 11.6224 13.0742 11.1606 12.8697 10.7397C12.6652 10.3189 12.3679 9.94991 12.0001 9.6607C12.456 9.30237 13.0035 9.07953 13.58 9.01765C14.1565 8.95577 14.7389 9.05735 15.2604 9.31077C15.7819 9.5642 16.2216 9.95924 16.5293 10.4508C16.8369 10.9423 17 11.5104 17 12.0903Z" fill="#F79E1B"/>
<path d="M16.7052 14.0052V13.9057H16.7453V13.8854H16.6431V13.9057H16.6832V14.0052H16.7052ZM16.9035 14.0052V13.8852H16.8722L16.8362 13.9677L16.8001 13.8852H16.7688V14.0052H16.7909V13.9147L16.8247 13.9927H16.8476L16.8814 13.9145V14.0052H16.9035Z" fill="#F79E1B"/>
</svg>
