<svg width="72" height="103" viewBox="0 0 72 103" fill="none" xmlns="http://www.w3.org/2000/svg">
<path d="M21.8367 50.9013C18.3467 50.9013 15.5547 48.1067 15.5547 44.6135C15.5547 41.1203 18.3467 38.3257 21.8367 38.3257C25.3267 38.3257 28.1187 41.1203 28.1187 44.6135C28.1187 48.0069 25.3267 50.9013 21.8367 50.9013ZM21.8367 40.1222C19.4435 40.1222 17.4493 42.1183 17.4493 44.5137C17.4493 46.909 19.4435 48.9051 21.8367 48.9051C24.2298 48.9051 26.2241 46.909 26.2241 44.5137C26.2241 42.1183 24.2298 40.1222 21.8367 40.1222Z" fill="url(#paint0_radial_73184_70597)"></path>
<path d="M21.8371 53.0968C17.1506 53.0968 13.2617 49.3042 13.2617 44.5135C13.2617 39.7228 17.0509 35.9302 21.8371 35.9302C26.5237 35.9302 30.4126 39.7228 30.4126 44.5135C30.4126 49.3042 26.5237 53.0968 21.8371 53.0968ZM21.8371 37.7267C18.1477 37.7267 15.0566 40.7209 15.0566 44.5135C15.0566 48.2063 18.048 51.3003 21.8371 51.3003C25.5266 51.3003 28.6177 48.3061 28.6177 44.5135C28.6177 40.8207 25.5266 37.7267 21.8371 37.7267Z" fill="url(#paint1_radial_73184_70597)"></path>
<path d="M21.8355 55.2925C15.9524 55.2925 11.0664 50.5018 11.0664 44.5134C11.0664 38.6249 15.8527 33.7344 21.8355 33.7344C27.8184 33.7344 32.6047 38.5251 32.6047 44.5134C32.6047 50.5018 27.7187 55.2925 21.8355 55.2925ZM21.8355 35.4311C16.7501 35.4311 12.6618 39.5231 12.6618 44.6133C12.6618 49.7034 16.7501 53.7954 21.8355 53.7954C26.921 53.7954 31.0093 49.7034 31.0093 44.6133C31.0093 39.5231 26.8213 35.4311 21.8355 35.4311Z" fill="url(#paint2_radial_73184_70597)"></path>
<path d="M21.8379 57.4884C14.6584 57.4884 8.875 51.6997 8.875 44.5136C8.875 37.3276 14.6584 31.5388 21.8379 31.5388C29.0173 31.5388 34.8007 37.3276 34.8007 44.5136C34.8007 51.6997 28.9176 57.4884 21.8379 57.4884ZM21.8379 33.0359C15.4561 33.0359 10.271 38.2258 10.271 44.6134C10.271 51.001 15.4561 56.191 21.8379 56.191C28.2196 56.191 33.4047 51.001 33.4047 44.6134C33.305 38.2258 28.2196 33.0359 21.8379 33.0359Z" fill="url(#paint3_radial_73184_70597)"></path>
<path d="M21.8363 59.784C13.4603 59.784 6.67969 52.9971 6.67969 44.6134C6.67969 36.2297 13.4603 29.4429 21.8363 29.4429C30.2122 29.4429 36.9928 36.2297 36.9928 44.6134C36.9928 52.9971 30.2122 59.784 21.8363 59.784ZM21.8363 30.6405C14.1583 30.6405 7.87626 36.9283 7.87626 44.6134C7.87626 52.2985 14.1583 58.5863 21.8363 58.5863C29.5142 58.5863 35.7962 52.2985 35.7962 44.6134C35.7962 36.9283 29.5142 30.6405 21.8363 30.6405Z" fill="url(#paint4_radial_73184_70597)"></path>
<path d="M21.8386 61.9796C12.266 61.9796 4.48828 54.1947 4.48828 44.6133C4.48828 35.032 12.266 27.2471 21.8386 27.2471C31.4111 27.2471 39.1888 34.9321 39.1888 44.5135C39.1888 54.1947 31.4111 61.9796 21.8386 61.9796ZM21.8386 28.2451C12.8643 28.2451 5.58514 35.531 5.58514 44.5135C5.58514 53.4961 12.8643 60.782 21.8386 60.782C30.8128 60.782 38.092 53.4961 38.092 44.5135C38.092 35.531 30.8128 28.2451 21.8386 28.2451Z" fill="url(#paint5_radial_73184_70597)"></path>
<path d="M21.839 64.1755C10.9702 64.1755 2.19531 55.3925 2.19531 44.5137C2.19531 33.7346 10.9702 24.9517 21.839 24.9517C32.6082 24.9517 41.4827 33.7346 41.4827 44.6135C41.383 55.3926 32.6082 64.1755 21.839 64.1755ZM21.839 25.8499C11.5684 25.8499 3.19245 34.2336 3.19245 44.5137C3.19245 54.7937 11.5684 63.1774 21.839 63.1774C32.1096 63.1774 40.4856 54.8935 40.4856 44.5137C40.4856 34.2336 32.1096 25.8499 21.839 25.8499Z" fill="url(#paint6_radial_73184_70597)"></path>
<path d="M21.8374 66.3711C9.77199 66.3711 0 56.5901 0 44.5136C0 32.437 9.77199 22.656 21.8374 22.656C33.9028 22.656 43.6748 32.437 43.6748 44.5136C43.6748 56.5901 33.8031 66.3711 21.8374 66.3711ZM21.8374 23.4545C10.1709 23.4545 0.797714 32.936 0.797714 44.5136C0.797714 56.0911 10.2706 65.5727 21.8374 65.5727C33.4043 65.5727 42.8771 56.0911 42.8771 44.5136C42.8771 32.936 33.4043 23.4545 21.8374 23.4545Z" fill="url(#paint7_radial_73184_70597)"></path>
<path d="M25.6258 44.5136C25.6258 46.6095 23.9305 48.3062 21.8363 48.3062C19.7422 48.3062 18.0469 46.6095 18.0469 44.5136C18.0469 42.4177 19.7422 40.7209 21.8363 40.7209C23.9305 40.8208 25.6258 42.5175 25.6258 44.5136Z" fill="url(#paint8_radial_73184_70597)"></path>
<path d="M25.625 27.1473C25.625 27.1473 25.8244 26.8479 26.323 26.5485C26.8216 26.2491 27.4199 25.8498 28.2176 25.4506C28.9156 25.0514 29.813 24.5524 30.511 24.1531C31.3087 23.6541 32.0067 23.1551 32.605 22.7559C33.2033 22.3566 33.9013 21.8576 34.699 21.2588C35.397 20.6599 36.095 19.9613 36.6933 19.2626C37.2916 18.564 37.5907 17.8654 37.7901 17.3663C37.8899 17.0669 37.9896 16.8673 37.9896 16.7675C37.9896 16.5679 38.0893 16.5679 38.0893 16.5679C38.189 16.5679 38.2887 16.9671 38.0893 17.5659C37.9896 18.1648 37.6904 18.9632 37.0921 19.7617C36.5936 20.5601 35.8956 21.3586 35.0979 21.9574C34.3999 22.656 33.6021 23.1551 33.0039 23.5543C32.4056 23.9535 31.6079 24.4526 30.8101 24.8518C30.0124 25.251 29.115 25.6502 28.3173 26.0495C27.5196 26.3489 26.8216 26.6483 26.323 26.8479C25.9241 27.0475 25.625 27.1473 25.625 27.1473Z" fill="black"></path>
<path d="M71.9939 52.4981C71.9939 52.4981 71.6948 52.4981 71.0965 52.2985C70.4982 52.1987 69.8002 51.8993 68.8031 51.5998C66.8088 51.001 64.1165 50.1028 61.1251 49.0049C59.6294 48.5058 58.0339 47.907 56.4385 47.3082C54.8431 46.7093 53.2476 46.0107 51.6522 45.3121C48.5611 43.9148 45.4699 42.5175 43.0768 41.3198C42.4785 41.0204 41.7805 40.721 41.0825 40.3217C40.3845 39.9225 39.6865 39.6231 38.9885 39.1241C38.5896 38.9245 38.2905 38.625 37.9914 38.2258C37.6922 37.9264 37.3931 37.5272 37.0939 37.2277C36.4956 36.5291 35.9971 35.8305 35.4985 35.032C35.2991 34.6328 34.9999 34.2336 34.8005 33.8343C34.6011 33.4351 34.4016 33.0359 34.1025 32.7365C33.9031 32.3372 33.6039 32.0378 33.3048 31.7384C33.1054 31.5388 33.0057 31.439 32.8062 31.3392C32.7065 31.2394 32.6068 31.2394 32.6068 31.1396L32.3077 30.94C30.7122 30.0417 29.2165 29.0436 27.7208 28.1454C27.5214 28.0456 27.3219 27.9458 27.2222 27.846C27.1225 27.7462 27.0228 27.7462 26.9231 27.7462C26.8234 27.7462 26.7237 27.6464 26.6239 27.6464C26.2251 27.4467 25.9259 27.3469 25.5271 27.3469C24.8291 27.2471 24.0314 27.3469 23.2337 27.3469C22.8348 27.3469 22.4359 27.3469 22.1368 27.2471C21.7379 27.1473 21.4388 27.0475 21.1397 27.0475C20.8405 26.9477 20.5414 26.8479 20.2422 26.8479C19.9431 26.7481 19.6439 26.7481 19.4445 26.8479C19.2451 26.9477 19.0457 27.0475 18.9459 27.2471C18.8462 27.4467 18.7465 27.6464 18.7465 27.846C18.7465 28.2452 18.8462 28.6444 18.9459 28.844C19.2451 29.3431 19.4445 29.6425 19.4445 29.6425C19.4445 29.6425 19.1454 29.4429 18.7465 28.9438C18.5471 28.6444 18.3477 28.345 18.3477 27.846C18.3477 27.6464 18.4474 27.3469 18.5471 27.1473C18.6468 26.9477 18.9459 26.6483 19.2451 26.5485C19.5442 26.4487 19.8434 26.4487 20.2422 26.5485C20.5414 26.6483 20.8405 26.6483 21.1397 26.7481C21.7379 26.9477 22.4359 27.0475 23.1339 26.9477C23.8319 26.9477 24.6297 26.7481 25.5271 26.9477C26.4245 27.0475 27.2222 27.4467 27.9202 27.846C29.4159 28.6444 30.9116 29.5427 32.5071 30.4409L32.8062 30.6405C32.9059 30.7403 33.0057 30.7403 33.1054 30.8402C33.3048 31.0398 33.5042 31.1396 33.6039 31.3392C33.9031 31.6386 34.3019 32.0378 34.5014 32.4371C34.6011 32.6367 34.8005 32.8363 34.9002 33.0359L35.1994 33.6347C35.3988 34.034 35.6979 34.4332 35.8974 34.7326C36.3959 35.4312 36.8945 36.2297 37.3931 36.8285C37.6922 37.1279 37.8916 37.4274 38.1908 37.7268C38.4899 38.0262 38.7891 38.2258 39.0882 38.4254C39.6865 38.8246 40.4842 39.2239 41.0825 39.5233C41.7805 39.8227 42.3788 40.2219 42.9771 40.5214C45.4699 41.719 48.4614 43.1163 51.5525 44.5136C53.1479 45.2122 54.6436 45.9109 56.2391 46.5097C57.8345 47.1086 59.3302 47.7074 60.8259 48.3062C63.8173 49.5039 66.4099 50.4022 68.3045 51.2006C70.8971 51.9991 72.0936 52.3983 71.9939 52.4981Z" fill="black"></path>
<path d="M9.97471 34.1338C9.97471 34.1338 9.875 34.034 9.875 33.8344C9.875 33.6348 9.875 33.2356 9.875 32.9361C9.97471 32.5369 10.1741 32.1377 10.4733 31.6387C10.6727 31.439 10.7724 31.2394 10.9719 30.94C11.1713 30.7404 11.4704 30.5408 11.7696 30.3412C12.3679 30.0418 12.9661 29.9419 13.6641 29.8421C14.2624 29.7423 14.9604 29.6425 15.5587 29.5427C16.855 29.3431 18.1513 29.2433 19.1484 29.3431C19.4476 29.3431 19.647 29.3431 19.9461 29.4429C20.0459 29.4429 20.1456 29.4429 20.1456 29.4429C20.2453 29.4429 20.2453 29.4429 20.345 29.4429C20.5444 29.4429 20.6441 29.5427 20.8436 29.5427C21.4419 29.7423 22.0401 29.9419 22.7381 30.0418C23.3364 30.2414 24.0344 30.441 24.6327 30.5408C24.9319 30.6406 25.231 30.6406 25.6299 30.7404C25.929 30.8402 26.3279 30.8402 26.627 30.94C27.9233 31.2394 29.0201 31.5388 29.8178 31.7385C30.6156 31.9381 31.1141 32.1377 31.1141 32.2375C31.1141 32.3373 30.6156 32.2375 29.8178 32.1377C29.0201 32.0379 27.8236 31.8383 26.627 31.6387C26.3279 31.6387 26.0287 31.5388 25.6299 31.5388C25.3307 31.5388 24.9319 31.439 24.6327 31.3392C23.9347 31.2394 23.2367 31.0398 22.6384 30.8402C21.9404 30.6406 21.3421 30.441 20.7439 30.3412C20.6441 30.3412 20.4447 30.2414 20.345 30.2414C20.2453 30.2414 20.2453 30.2414 20.1456 30.2414C20.0459 30.2414 20.0459 30.2414 19.9461 30.2414C19.647 30.2414 19.4476 30.1416 19.1484 30.1416C18.1513 30.0418 16.9547 30.1416 15.7581 30.2414C15.1599 30.3412 14.4619 30.441 13.8636 30.441C13.2653 30.5408 12.667 30.6406 12.1684 30.8402C11.969 30.94 11.7696 31.0398 11.5701 31.2394C11.3707 31.439 11.1713 31.5388 11.0716 31.7385C10.7724 32.1377 10.573 32.4371 10.3736 32.8363C9.97471 33.6348 10.0744 34.1338 9.97471 34.1338Z" fill="black"></path>
<path d="M6.58362 39.623C6.58362 39.623 6.28445 39.5232 5.98528 39.2238C5.68612 38.9244 5.28722 38.3256 5.1875 37.5271C5.1875 37.1279 5.1875 36.7287 5.1875 36.4292C5.28722 36.03 5.38695 35.6308 5.68611 35.3314C5.98528 35.032 6.28445 34.7325 6.58362 34.5329C6.88279 34.3333 7.28168 34.2335 7.58085 34.2335C8.27891 33.9341 9.0767 33.9341 9.87448 33.9341C10.6723 33.9341 11.47 34.0339 12.1681 34.0339C12.8662 34.0339 13.5642 34.0339 14.0628 34.0339C14.5615 34.0339 14.7609 33.9341 14.8606 33.9341C14.8606 33.9341 14.6612 34.1337 14.1626 34.2335C13.664 34.3333 13.0656 34.4331 12.2678 34.5329C11.47 34.5329 10.6723 34.5329 9.9742 34.5329C9.17642 34.5329 8.47836 34.6327 7.97974 34.7325C7.48113 34.8323 6.78307 35.0319 6.38418 35.531C5.98528 36.03 5.88556 36.7287 5.88556 37.4273C5.88556 38.0261 6.18473 38.625 6.38418 38.9244C6.4839 39.3236 6.68334 39.5232 6.58362 39.623Z" fill="black"></path>
<path d="M64.0167 71.561C64.0167 71.561 63.7175 71.4612 63.219 71.1618C62.7204 70.8624 62.0224 70.3633 61.125 69.8643C59.3301 68.6666 56.8372 67.0697 54.0452 65.373C51.2533 63.5765 48.1621 61.5804 45.1707 59.7839C43.675 58.8856 42.1793 57.9874 40.7833 57.1889C40.0853 56.7897 39.3873 56.3905 38.6893 56.0911C38.5895 56.0911 38.4898 55.9913 38.3901 55.9913C38.2904 55.9913 38.1907 55.8914 38.1907 55.8914C37.9913 55.7916 37.8915 55.7916 37.6921 55.6918C37.393 55.592 36.9941 55.4922 36.695 55.3924C35.299 55.093 33.8033 54.8934 32.1081 54.7936C30.413 54.6938 28.6181 54.6938 26.7235 54.594C25.8261 54.594 24.829 54.594 23.9315 54.4942C22.9344 54.4942 22.037 54.3944 21.0398 54.1947C19.1453 53.7955 17.3504 53.1967 15.755 52.3982C15.3561 52.1986 14.9573 51.999 14.5584 51.8992C14.359 51.7994 14.1596 51.6996 13.9601 51.5998C13.8604 51.5998 13.7607 51.5 13.661 51.5C13.5613 51.5 13.4616 51.4002 13.3618 51.4002C12.5641 51.2006 11.7664 51.2006 11.0684 51.2006C9.5727 51.2006 8.1767 51.4002 6.98013 51.4002C6.38184 51.4002 5.88327 51.4002 5.3847 51.2006C4.88613 51.1007 4.58699 50.9011 4.28784 50.7015C3.9887 50.5019 3.88899 50.3023 3.78927 50.1027C3.58984 50.0029 3.58984 49.9031 3.58984 49.9031C3.58984 49.9031 3.68956 50.0029 3.78927 50.1027C3.88899 50.2025 4.08842 50.4021 4.28784 50.6017C4.58699 50.8013 4.88613 50.9011 5.3847 51.0009C5.78356 51.1007 6.28213 51.1008 6.88041 51.1008C7.97727 51.0009 9.37327 50.8013 10.9687 50.7015C11.7664 50.7015 12.5641 50.7015 13.4616 50.9011C13.5613 50.9011 13.661 51.0009 13.7607 51.0009C13.8604 51.0009 13.9601 51.1008 14.0598 51.1008C14.2593 51.2006 14.4587 51.3004 14.6581 51.3004C15.057 51.5 15.4558 51.5998 15.8547 51.7994C17.4501 52.498 19.245 53.0969 21.0398 53.3963C21.9373 53.5959 22.8347 53.6957 23.8318 53.6957C24.7293 53.6957 25.7264 53.6957 26.6238 53.6957C28.5184 53.6957 30.3133 53.6957 32.0084 53.7955C33.7035 53.8953 35.3987 53.9951 36.7947 54.3944C37.1935 54.4942 37.4927 54.594 37.8915 54.6938C38.091 54.7936 38.2904 54.7936 38.4898 54.8934C38.6893 54.9932 38.8887 55.093 39.0881 55.093C39.7861 55.3924 40.4841 55.7916 41.2818 56.2907C42.7775 57.0891 44.1735 58.0872 45.6693 58.9854C48.6607 60.8818 51.7518 62.8779 54.4441 64.7742C57.1364 66.6705 59.6292 68.3672 61.3244 69.5649C62.2218 70.1637 62.9198 70.6628 63.3187 71.062C63.8172 71.3614 64.0167 71.561 64.0167 71.561Z" fill="black"></path>
<path d="M3.58823 49.903C3.58823 49.903 3.48851 49.8032 3.38879 49.5038C3.38879 49.404 3.28906 49.2044 3.28906 49.0047C3.28906 48.8051 3.38879 48.6055 3.48851 48.3061C3.48851 48.2063 3.58823 48.1065 3.68795 47.9069C3.68795 47.8071 3.78768 47.8071 3.78768 47.7073C3.8874 47.6075 3.8874 47.6075 3.98712 47.5076C4.28629 47.308 4.58546 47.1084 4.88463 47.0086C5.48297 46.7092 6.28075 46.6094 7.07854 46.4098C7.87632 46.2102 8.6741 46.1104 9.47189 46.0106C9.87078 45.9107 10.2697 45.8109 10.6686 45.7111C10.868 45.6113 11.0675 45.6113 11.2669 45.5115C11.3666 45.5115 11.4663 45.4117 11.4663 45.4117C11.5661 45.4117 11.5661 45.3119 11.5661 45.3119C11.5661 45.3119 11.5661 45.3119 11.6658 45.3119C11.6658 45.3119 11.6658 45.3119 11.5661 45.3119C11.4663 45.3119 11.2669 45.2121 11.0675 45.2121C10.6686 45.2121 10.2697 45.2121 9.87078 45.2121C9.67133 45.2121 9.47189 45.2121 9.27244 45.2121C9.073 45.2121 8.87355 45.2121 8.6741 45.2121C8.27521 45.2121 7.97604 45.3119 7.67687 45.3119C7.3777 45.6113 7.17826 45.7111 6.97881 45.9107C6.87909 46.0106 6.77937 46.1104 6.77937 46.2102C6.77937 46.2102 6.77937 46.31 6.67964 46.31V46.4098V46.5096C6.57992 46.7092 6.57992 46.9088 6.4802 47.0086C6.28075 47.0086 6.08131 46.9088 5.98158 46.9088L5.78214 46.809C5.78214 46.809 5.68241 46.809 5.68241 46.7092H5.58269C5.48297 46.6094 5.38325 46.6094 5.28352 46.5096C5.1838 46.4098 5.08408 46.4098 5.08408 46.31C4.78491 46.0106 4.58546 45.6113 4.38602 45.3119C4.18657 44.9127 4.08685 44.5135 3.98712 44.1142C3.8874 43.715 3.78768 43.3158 3.78768 42.9166C3.78768 42.5173 3.78768 42.1181 3.8874 41.6191C3.98712 41.2199 4.18657 40.8206 4.38602 40.4214C4.68518 40.0222 4.98435 39.8226 5.38325 39.623C5.48297 39.623 5.58269 39.5231 5.68241 39.5231C5.78214 39.5231 5.88186 39.5232 5.98158 39.4233H6.08131H6.18103C6.28075 39.4233 6.38048 39.4233 6.4802 39.4233C7.87632 39.3235 9.073 39.2237 9.9705 39.1239C10.868 39.0241 11.3666 39.0241 11.3666 39.1239C11.3666 39.1239 10.868 39.2237 9.9705 39.4233C9.17272 39.5232 7.97604 39.7228 6.57992 39.9224C6.4802 39.9224 6.38048 39.9224 6.28075 39.9224H6.18103H5.98158C5.88186 39.9224 5.78214 39.9224 5.78214 40.0222C5.68241 40.0222 5.58269 40.122 5.58269 40.122C5.28352 40.2218 4.98435 40.4214 4.78491 40.7208C4.38602 41.3197 4.28629 42.0183 4.38602 42.8168C4.38602 43.216 4.48574 43.5154 4.58546 43.9146C4.68518 44.3138 4.88463 44.6133 4.98435 44.9127C5.1838 45.2121 5.38325 45.5115 5.58269 45.8109L5.68241 45.9107L5.78214 46.0106C5.88186 46.1104 5.88186 46.1104 5.98158 46.1104V46.0106C5.98158 46.0106 5.98158 45.9107 6.08131 45.9107C6.18103 45.7111 6.28075 45.5115 6.4802 45.4117C6.77937 45.1123 7.17826 45.0125 7.47743 44.9127C7.87632 44.8129 8.17549 44.8129 8.57438 44.8129C8.77383 44.8129 8.97327 44.8129 9.17272 44.8129C9.37216 44.8129 9.57161 44.8129 9.77106 44.8129C10.1699 44.8129 10.5688 44.8129 10.9677 44.8129C11.1672 44.8129 11.3666 44.8129 11.6658 44.9127H11.7655C11.7655 44.9127 11.8652 44.9127 11.8652 45.0125L11.965 45.1123L12.0647 45.2121C12.0647 45.3119 12.1644 45.4117 12.1644 45.5115C12.1644 45.6113 12.1644 45.6113 12.1644 45.7111C12.1644 45.8109 12.1644 45.8109 12.0647 45.8109C11.965 46.0106 11.8652 46.0106 11.7655 46.1104C11.6658 46.2102 11.5661 46.2102 11.4663 46.31C11.2669 46.4098 11.0675 46.4098 10.868 46.5096C10.4691 46.6094 9.9705 46.7092 9.57161 46.7092C8.77383 46.809 7.87632 46.9088 7.17826 47.1084C6.38048 47.2082 5.68241 47.4078 5.08408 47.6075C4.78491 47.7073 4.48574 47.8071 4.28629 48.0067C4.08685 47.9069 3.98712 48.0067 3.98712 48.1065C3.8874 48.2063 3.8874 48.3061 3.78768 48.4059C3.68795 48.6055 3.58823 48.8051 3.58823 49.0047C3.58823 49.2044 3.58823 49.3042 3.58823 49.5038C3.58823 49.8032 3.58823 49.903 3.58823 49.903Z" fill="black"></path>
<path d="M0.798909 103C0.699186 103 0.599463 102.002 0.49974 100.305C0.49974 99.9061 0.49974 99.4071 0.400017 98.9081C0.400017 98.409 0.400017 97.91 0.300294 97.3112C0.300294 96.7123 0.300294 96.1135 0.200571 95.5146C0.200571 94.9158 0.200571 94.2172 0.200571 93.6183C0.100848 91.0234 0.200571 88.0292 0.200571 85.2346C0.300294 82.44 0.400017 79.6455 0.599463 77.4497C0.699186 76.3519 0.798909 75.0544 0.998355 73.6571C1.09808 72.9584 1.1978 72.2598 1.1978 71.5612C1.29752 70.8625 1.39725 70.1639 1.49697 69.3654C1.49697 69.2656 1.49697 69.1658 1.49697 69.066V68.9662V68.8664C1.49697 68.6668 1.49697 68.4672 1.49697 68.2676C1.49697 67.8683 1.49697 67.5689 1.49697 67.1697V66.5708C1.49697 66.3712 1.49697 66.1716 1.49697 65.972C1.49697 65.5728 1.49697 65.1736 1.49697 64.8741C1.49697 64.6745 1.49697 64.4749 1.49697 64.2753C1.49697 64.0757 1.49697 63.8761 1.49697 63.6765C1.49697 63.2772 1.49697 62.9778 1.49697 62.5786C1.49697 62.1794 1.49697 61.88 1.59669 61.4807C1.59669 61.2811 1.59669 61.0815 1.59669 60.9817C1.59669 60.7821 1.59669 60.5825 1.69642 60.4827C1.69642 60.0834 1.79614 59.784 1.79614 59.3848C1.89586 59.0854 1.89586 58.6862 1.99559 58.3867C1.99559 58.0873 2.09531 57.6881 2.19503 57.3887C2.29475 57.0893 2.29475 56.7898 2.39448 56.4904C2.69365 55.2927 2.99282 54.1949 3.29198 53.3964C3.89032 51.6997 4.58838 50.7017 4.68811 50.7017C4.78783 50.7017 4.18949 51.6997 3.69088 53.4962C3.39171 54.3945 3.19226 55.3926 2.99282 56.5902C2.89309 56.8896 2.89309 57.1891 2.89309 57.4885C2.89309 57.7879 2.79337 58.0873 2.79337 58.4865C2.79337 58.786 2.69365 59.1852 2.69365 59.4846C2.69365 59.784 2.59392 60.1832 2.59392 60.4827C2.59392 60.6823 2.59392 60.7821 2.59392 60.9817C2.59392 61.1813 2.59392 61.3809 2.59392 61.4807C2.59392 61.88 2.59392 62.1794 2.59392 62.5786C2.59392 62.9778 2.59392 63.2772 2.59392 63.6765C2.59392 63.8761 2.59392 64.0757 2.59392 64.2753C2.59392 64.4749 2.59392 64.6745 2.59392 64.8741C2.59392 65.2734 2.59392 65.5728 2.69365 65.972C2.69365 66.1716 2.69365 66.3712 2.69365 66.5708V67.1697C2.69365 67.5689 2.69365 67.9681 2.79337 68.2676C2.79337 68.4672 2.79337 68.6668 2.79337 68.8664V68.9662V69.1658C2.79337 69.2656 2.79337 69.3654 2.79337 69.4652C2.69365 70.2637 2.59392 70.9623 2.59392 71.661C2.4942 72.3596 2.39448 73.0583 2.39448 73.7569C2.29475 75.1542 2.19503 76.3519 2.09531 77.4497C1.89586 79.7453 1.69642 82.44 1.59669 85.2346C1.09808 88.129 0.998355 91.0234 0.998355 93.7181C0.998355 94.4168 0.998355 95.0156 0.998355 95.6145C0.998355 96.2133 0.998355 96.8121 0.998355 97.411C0.998355 98.0098 0.998355 98.5088 0.998355 99.0079C0.998355 99.5069 0.998355 100.006 0.998355 100.405C0.898632 102.002 0.898632 103 0.798909 103Z" fill="black"></path>
<path d="M27.221 99.7065C27.1213 99.7065 27.221 99.0078 27.3207 97.8101C27.4204 96.6125 27.6199 95.0156 27.8193 93.2191C28.2182 89.626 28.5174 85.2346 28.7168 82.0408C28.8166 80.4439 28.9163 78.5475 29.016 76.4516C29.1157 74.3557 29.2155 72.2597 29.3152 70.2636C29.3152 70.1638 29.3152 70.064 29.3152 69.8644C29.3152 69.7646 29.3152 69.565 29.4149 69.4652V69.2656V69.0659C29.4149 68.9661 29.5146 68.8663 29.5146 68.6667C29.7141 68.1677 29.8138 67.7685 30.0132 67.3692C30.4121 66.5708 30.9107 65.972 31.2099 65.4729C32.0077 64.4749 32.606 63.9758 32.606 63.9758C32.7058 63.9758 32.2071 64.6745 31.5091 65.6725C31.2099 66.1716 30.811 66.8702 30.4121 67.5689C30.2127 67.9681 30.113 68.3673 30.0132 68.7665C30.0132 68.8663 30.0132 68.9661 29.9135 69.0659V69.2656V69.4652C29.9135 69.565 29.9135 69.6648 29.9135 69.7646C29.9135 69.8644 29.9135 69.9642 29.9135 70.1638C29.9135 72.0601 29.8138 74.2559 29.8138 76.3518C29.7141 78.4477 29.6143 80.344 29.5146 81.9409C29.3152 85.1347 28.9163 89.5262 28.4177 93.1192C28.1185 94.9158 27.8193 96.5127 27.6199 97.7103C27.4204 99.0078 27.3207 99.7065 27.221 99.7065Z" fill="black"></path>
<path d="M15.6566 72.1599C15.7563 72.2597 15.158 72.8586 14.3602 73.5572C13.5624 74.2559 12.4655 74.9545 11.7674 75.4535C11.3685 75.6531 10.8699 75.9526 10.2716 76.252C9.97239 76.3518 9.67322 76.4516 9.37405 76.5514C9.1746 76.5514 9.07488 76.6512 8.87543 76.6512C8.77571 76.6512 8.67599 76.6512 8.57626 76.6512H8.47654H8.37682H8.27709C8.17737 76.6512 8.17737 76.6512 8.07765 76.6512C8.07765 76.6512 7.97793 76.6512 7.97793 76.5514C7.8782 76.5514 7.8782 76.4516 7.77848 76.4516C7.67876 76.3518 7.57903 76.252 7.47931 76.1522C7.27986 75.9526 7.18014 75.753 7.08042 75.6531C6.88097 75.3537 6.78125 75.1541 6.78125 75.0543C6.88097 75.0543 6.9807 75.1541 7.27986 75.3537C7.37959 75.4535 7.57903 75.5533 7.77848 75.6531C7.8782 75.753 7.97793 75.8528 8.07765 75.8528C8.17737 75.8528 8.17737 75.8528 8.27709 75.9526C8.27709 75.9526 8.27709 75.9526 8.37682 75.9526C8.37682 75.9526 8.37682 75.9526 8.47654 75.9526H8.57626C8.67599 75.9526 8.67599 75.9526 8.77571 75.9526C8.77571 75.8528 8.97516 75.8528 9.07488 75.7529C9.37405 75.6531 9.57349 75.5533 9.87266 75.3537C10.3713 75.0543 10.8699 74.7549 11.2688 74.5553C12.0666 74.0562 13.0638 73.4574 13.9613 72.9584C14.8588 72.4593 15.5569 72.0601 15.6566 72.1599Z" fill="black"></path>
<path d="M32.6075 59.8836C32.7072 59.8836 32.6075 60.0832 32.6075 60.2829C32.5078 60.4825 32.4081 60.7819 32.3084 61.0813C32.1089 61.6801 31.8097 62.4786 31.6103 62.9776C31.4108 63.4766 31.012 64.2751 30.7128 64.9737C30.4136 65.6724 30.1144 66.1714 30.0147 66.0716C29.915 66.0716 29.915 65.4728 30.1144 64.6743C30.2142 63.9757 30.5133 63.0774 30.7128 62.5784C30.9122 61.9796 31.3111 61.2809 31.71 60.6821C31.9095 60.3827 32.1089 60.183 32.3084 59.9834C32.4081 59.8836 32.5078 59.7838 32.6075 59.8836Z" fill="black"></path>
<path d="M48.3599 36.4293C48.2602 36.5291 47.5622 35.8305 46.4653 35.1318C46.1662 34.9322 45.9667 34.8324 45.6676 34.6328C45.3685 34.533 45.0693 34.4332 44.7702 34.4332C44.0722 34.3334 43.3742 34.2336 42.8756 34.1338C40.6819 33.6347 36.3942 32.437 36.4939 32.1376C36.5936 31.8382 40.8813 32.7365 43.075 33.1357C43.5736 33.2355 44.2716 33.4351 44.9696 33.5349C45.3685 33.6347 45.7673 33.7345 46.0665 33.9341C46.3656 34.1338 46.6647 34.3334 46.9639 34.533C47.961 35.4312 48.4596 36.3295 48.3599 36.4293Z" fill="black"></path>
<path d="M39.5863 25.6503C39.4866 25.6503 39.3869 25.5505 39.1874 25.4507C39.0877 25.3509 38.988 25.2511 38.8883 25.0515C38.7885 24.9517 38.6888 24.7521 38.5891 24.5524C38.1902 23.8538 37.9908 22.8557 37.891 22.2569C37.7913 21.5583 37.6916 20.5602 37.7913 19.7617C37.7913 18.9633 37.9908 18.2646 38.0905 18.2646C38.1902 18.2646 38.3896 18.9633 38.4894 19.7617C38.5891 20.5602 38.7885 21.5583 38.8883 22.1571C38.988 22.7559 39.0877 23.6542 39.2872 24.4526C39.2872 24.6522 39.3869 24.8519 39.3869 24.9517C39.3869 25.0515 39.4866 25.2511 39.4866 25.3509C39.5863 25.4507 39.5863 25.5505 39.5863 25.6503Z" fill="black"></path>
<path d="M61.0239 37.9264C61.0239 37.9264 60.9242 37.8266 60.9242 37.627C60.9242 37.5272 60.9242 37.4274 60.8244 37.2278C60.8244 37.0281 60.8244 36.9283 60.7247 36.7287C60.7247 36.3295 60.625 35.8305 60.625 35.3314C60.625 34.8324 60.625 34.2336 60.625 33.5349C60.7247 31.0398 60.9242 27.9458 61.1236 25.8499C61.3231 23.6541 61.722 20.4603 62.1208 17.7656C62.5197 15.0708 62.9186 12.9749 63.0184 12.9749C63.1181 12.9749 63.0184 15.1706 62.8189 17.8654C62.6195 20.5601 62.3203 23.7539 62.1208 25.9497C61.9214 28.1454 61.6222 31.1396 61.4228 33.6347C61.3231 34.2336 61.3231 34.8324 61.2233 35.3314C61.2233 35.8305 61.1236 36.3295 61.1236 36.7287C61.1236 36.9283 61.1236 37.128 61.1236 37.2278C61.1236 37.4274 61.1236 37.5272 61.1236 37.627C61.0239 37.8266 61.0239 37.9264 61.0239 37.9264Z" fill="black"></path>
<path d="M64.6147 0C64.7144 0 64.9138 0.898256 65.0136 2.49516C65.1133 3.2936 65.1133 4.29167 65.0136 5.28973C65.0136 6.3876 64.9139 7.58527 64.6147 8.78295C64.6147 8.98256 64.515 9.08237 64.515 9.28198C64.515 9.48159 64.4153 9.5814 64.4153 9.78101C64.3156 10.0804 64.3156 10.3798 64.1161 10.6793C64.0164 10.9787 63.9167 11.2781 63.817 11.6773C63.7173 11.9767 63.5179 12.2762 63.4181 12.5756C63.4181 12.6754 63.3184 12.7752 63.3184 12.7752L63.2187 12.9748L63.0193 13.4738L62.9196 13.9729L62.6204 14.3721C62.3213 14.9709 61.9224 15.5698 61.6233 16.0688C60.9253 17.1667 60.1276 18.2645 59.3299 19.2626C58.5321 20.2607 57.6347 21.0591 56.6376 21.6579C55.7401 22.2568 54.5436 22.8556 53.347 23.2548C53.1476 23.2548 53.0479 23.3547 52.8484 23.4545C52.649 23.4545 52.5493 23.5543 52.3499 23.5543C52.1504 23.5543 52.0507 23.6541 51.8513 23.6541C51.6519 23.6541 51.4524 23.7539 51.3527 23.7539C50.6547 23.8537 49.857 23.8537 49.159 23.7539C47.763 23.5543 46.367 23.0552 44.971 22.4564C43.6747 21.8576 42.4781 21.0591 41.3813 20.2607C40.8827 19.8614 40.3841 19.4622 39.8856 18.9632C39.6861 18.7636 39.4867 18.4641 39.2873 18.2645C39.0879 18.0649 38.8884 17.7655 38.7887 17.5659C38.0907 16.6676 37.4924 15.8692 36.9939 15.1705C35.9967 13.7733 35.3984 12.875 35.3984 12.875C35.4982 12.875 36.1962 13.6735 37.293 14.9709C37.8913 15.6696 38.4896 16.468 39.2873 17.2665C39.4867 17.4661 39.6861 17.6657 39.8856 17.9651C40.085 18.1647 40.2844 18.3643 40.4839 18.564C40.8827 18.9632 41.3813 19.3624 41.9796 19.7616C43.0764 20.5601 44.273 21.1589 45.4696 21.7578C46.7659 22.3566 48.0621 22.7558 49.3584 22.9554C50.0564 23.0552 50.6547 23.0552 51.253 22.9554C51.4524 22.9554 51.5521 22.8556 51.7516 22.8556C51.951 22.8556 52.0507 22.7558 52.2501 22.7558C52.4496 22.7558 52.5493 22.656 52.7487 22.656C52.9481 22.656 53.0479 22.5562 53.1476 22.5562C54.3441 22.157 55.3413 21.6579 56.2387 21.0591C57.0364 20.4603 57.9339 19.7616 58.7316 18.7636C59.5293 17.8653 60.2273 16.7674 60.9253 15.6696C61.6233 14.5717 62.3213 13.374 62.9196 12.2762C63.0193 11.9767 63.2187 11.6773 63.3184 11.3779C63.4181 11.0785 63.5179 10.7791 63.6176 10.4797C63.7173 10.1802 63.817 9.88081 63.9167 9.5814C63.9167 9.38178 64.0164 9.28198 64.0164 9.18217C64.0164 9.08237 64.1161 8.88275 64.1161 8.78295C64.4153 7.58527 64.515 6.4874 64.6147 5.38954C64.7144 4.39147 64.7144 3.39341 64.7144 2.59496C64.7144 0.998062 64.6147 0 64.6147 0Z" fill="black"></path>
<path d="M71.694 20.3604C71.694 20.4602 70.7965 20.56 69.5999 20.56C68.4032 20.56 67.0071 20.4602 66.0098 20.2606C65.5112 20.1608 64.9129 20.061 64.2148 19.7615C64.1151 19.7615 64.0154 19.6617 63.9156 19.6617H63.8159L63.7162 19.5619C63.6165 19.4621 63.5168 19.4621 63.5168 19.3623L63.3173 19.1627C63.0181 18.8633 62.9184 18.5639 62.719 18.1646C62.5195 17.466 62.5195 16.8672 62.5195 16.4679C62.5195 16.0687 62.6193 15.7693 62.719 15.7693C62.8187 15.7693 62.8187 16.0687 62.9184 16.3681C63.0181 16.7673 63.1179 17.2664 63.3173 17.7654C63.417 17.965 63.6165 18.2644 63.8159 18.4641C64.0154 18.6637 64.2148 18.7635 64.514 18.8633C65.1123 19.0629 65.7107 19.1627 66.2093 19.2625C67.2065 19.4621 68.6026 19.6617 69.6996 19.7615C70.7965 20.061 71.694 20.2606 71.694 20.3604Z" fill="black"></path>
<path d="M53.5467 81.5418C53.5467 81.6416 51.7518 81.8412 49.3587 81.5418C48.7604 81.5418 48.1621 81.3422 47.5638 81.2424C47.2647 81.1425 46.9655 81.1425 46.6664 81.0427C46.3673 80.9429 46.0681 80.9429 45.769 80.8431C44.5724 80.5437 43.3758 80.0447 42.4784 79.6455C41.581 79.2462 40.4841 78.5476 39.3873 77.7491C38.8887 77.3499 38.3901 76.8509 37.8915 76.3518L37.6921 76.1522L37.5924 75.8528C37.4927 75.753 37.393 75.5534 37.2933 75.4536C37.0938 75.1542 36.8944 74.9546 36.7947 74.7549C35.997 73.8567 35.0995 73.2579 34.4015 72.8586C33.7035 72.4594 33.3047 72.2598 33.3047 72.16C33.3047 72.0602 33.8033 72.16 34.601 72.4594C35.3987 72.7588 36.3958 73.3577 37.2933 74.2559C37.4927 74.4555 37.7918 74.7549 37.9913 75.0544C38.091 75.1542 38.1907 75.3538 38.2904 75.4536L38.3901 75.6532L38.5895 75.8528C38.9884 76.3518 39.487 76.7511 39.9855 77.1503C40.9827 77.9487 42.0795 78.4478 42.977 78.9468C43.8744 79.346 44.9713 79.8451 46.0681 80.1445C46.3673 80.2443 46.6664 80.3441 46.9655 80.4439C47.2647 80.5437 47.5638 80.6435 47.863 80.6435C48.4613 80.7433 49.0595 80.9429 49.5581 81.0427C51.7518 81.2423 53.5467 81.3422 53.5467 81.5418Z" fill="black"></path>
<defs>
<radialGradient id="paint0_radial_73184_70597" cx="0" cy="0" r="1" gradientUnits="userSpaceOnUse" gradientTransform="translate(20.2649 45.3845) scale(21.4329 21.4526)">
<stop stop-color="#F54F48"></stop>
<stop offset="1" stop-color="white"></stop>
</radialGradient>
<radialGradient id="paint1_radial_73184_70597" cx="0" cy="0" r="1" gradientUnits="userSpaceOnUse" gradientTransform="translate(20.2652 45.3842) scale(21.4329 21.4526)">
<stop stop-color="#F54F48"></stop>
<stop offset="1" stop-color="white"></stop>
</radialGradient>
<radialGradient id="paint2_radial_73184_70597" cx="0" cy="0" r="1" gradientUnits="userSpaceOnUse" gradientTransform="translate(20.2636 45.3843) scale(21.433 21.4527)">
<stop stop-color="#F54F48"></stop>
<stop offset="1" stop-color="white"></stop>
</radialGradient>
<radialGradient id="paint3_radial_73184_70597" cx="0" cy="0" r="1" gradientUnits="userSpaceOnUse" gradientTransform="translate(20.2661 45.3844) scale(21.4329 21.4526)">
<stop stop-color="#F54F48"></stop>
<stop offset="1" stop-color="white"></stop>
</radialGradient>
<radialGradient id="paint4_radial_73184_70597" cx="0" cy="0" r="1" gradientUnits="userSpaceOnUse" gradientTransform="translate(20.2644 45.3844) scale(21.4329 21.4526)">
<stop stop-color="#F54F48"></stop>
<stop offset="1" stop-color="white"></stop>
</radialGradient>
<radialGradient id="paint5_radial_73184_70597" cx="0" cy="0" r="1" gradientUnits="userSpaceOnUse" gradientTransform="translate(20.2667 45.3844) scale(21.4329 21.4526)">
<stop stop-color="#F54F48"></stop>
<stop offset="1" stop-color="white"></stop>
</radialGradient>
<radialGradient id="paint6_radial_73184_70597" cx="0" cy="0" r="1" gradientUnits="userSpaceOnUse" gradientTransform="translate(20.2671 45.3844) scale(21.4329 21.4526)">
<stop stop-color="#F54F48"></stop>
<stop offset="1" stop-color="white"></stop>
</radialGradient>
<radialGradient id="paint7_radial_73184_70597" cx="0" cy="0" r="1" gradientUnits="userSpaceOnUse" gradientTransform="translate(20.2655 45.3843) scale(21.4329 21.4526)">
<stop stop-color="#F54F48"></stop>
<stop offset="1" stop-color="white"></stop>
</radialGradient>
<radialGradient id="paint8_radial_73184_70597" cx="0" cy="0" r="1" gradientUnits="userSpaceOnUse" gradientTransform="translate(20.2643 45.3844) scale(21.4347 21.4526)">
<stop stop-color="#F54F48"></stop>
<stop offset="1" stop-color="white"></stop>
</radialGradient>
</defs>
</svg>